<svg xmlns="http://www.w3.org/2000/svg" width="99" height="29" viewBox="0 0 99 29" fill="none"><path d="M3.57932 29.0002C2.63109 28.9986 1.72212 28.6261 1.05132 27.9642C0.380525 27.3024 0.00251152 26.4051 0 25.4687L0 3.53491C0.00251152 2.59767 0.380858 1.69958 1.05225 1.03715C1.72365 0.374713 2.63342 0.00188003 3.58249 0.000228882L94.8457 0.000228882C95.7947 0.00105716 96.7047 0.373726 97.3757 1.03643C98.0468 1.69913 98.4242 2.59771 98.425 3.53491V25.4687C98.4233 26.4053 98.0456 27.3031 97.3746 27.9651C96.7036 28.6272 95.7942 28.9994 94.8457 29.0002H3.57932ZM3.58566 1.56425C3.05527 1.56424 2.54656 1.7721 2.17123 2.14216C1.79589 2.51223 1.58461 3.01427 1.58377 3.53803V25.4687C1.58545 25.9911 1.79677 26.4915 2.17142 26.8603C2.54607 27.2291 3.05349 27.4362 3.58249 27.4362H94.8457C95.3747 27.4362 95.8821 27.2291 96.2568 26.8603C96.6314 26.4915 96.8427 25.9911 96.8444 25.4687V3.53491C96.8436 3.01251 96.6331 2.51174 96.259 2.14235C95.8849 1.77296 95.3779 1.56507 94.8489 1.56425H3.58566Z" fill="white"></path><path d="M34.8245 8.8237C34.8406 9.07872 34.8048 9.33433 34.7194 9.57552C34.634 9.81671 34.5007 10.0386 34.3272 10.2282C34.0165 10.529 33.6231 10.7328 33.1959 10.8144C32.7688 10.8959 32.3268 10.8516 31.9249 10.6869C31.5231 10.5221 31.1792 10.2443 30.9362 9.88798C30.6931 9.53165 30.5615 9.11257 30.5579 8.68294C30.5536 8.39423 30.608 8.10761 30.7179 7.84005C30.8279 7.57249 30.991 7.32942 31.1978 7.12525C31.4045 6.92108 31.6506 6.75995 31.9216 6.65141C32.1925 6.54286 32.4828 6.4891 32.7751 6.49332C33.0721 6.4975 33.3639 6.57035 33.6272 6.70602C33.879 6.81091 34.0977 6.98049 34.2607 7.19713L33.8933 7.55998C33.7586 7.3928 33.5846 7.26067 33.3864 7.17507C33.1882 7.08948 32.9718 7.05302 32.7561 7.06888C32.5413 7.06008 32.3272 7.09973 32.1302 7.18483C31.9331 7.26992 31.7583 7.39821 31.619 7.55998C31.4486 7.70834 31.3155 7.89384 31.2303 8.10178C31.1451 8.30972 31.1101 8.53439 31.128 8.75801C31.1116 8.98161 31.148 9.20591 31.2343 9.41326C31.3206 9.62061 31.4544 9.80535 31.6253 9.95292C31.9344 10.243 32.3369 10.4168 32.7625 10.444C32.9876 10.4532 33.2121 10.414 33.4204 10.3293C33.6288 10.2445 33.816 10.1161 33.9693 9.95292C34.0837 9.84406 34.1745 9.7133 34.236 9.56862C34.2976 9.42395 34.3286 9.2684 34.3272 9.11148H32.7625V8.54844H34.8245V8.82996V8.8237ZM38.0934 7.06888H36.1739V8.40142H37.9509V8.89252H36.1739V10.2282H38.0934V10.7881H35.6037V6.56839H38.0934V7.06888ZM40.4374 10.7881H39.8704V7.06888H38.6604V6.56839H41.6474V7.06888H40.4374V10.7881ZM43.7095 10.7881V6.56839H44.2765V10.7881H43.7095ZM46.6933 10.7881H46.1263V7.06888H44.9163V6.56839H47.8304V7.06888H46.6236V10.7881H46.6933ZM53.4465 10.2282C53.1356 10.5279 52.7425 10.7309 52.3159 10.8118C51.8892 10.8928 51.4479 10.8482 51.0467 10.6836C50.6455 10.519 50.3022 10.2416 50.0592 9.88593C49.8163 9.53025 49.6845 9.11194 49.6803 8.68294C49.6449 8.37646 49.6755 8.06606 49.7701 7.77208C49.8647 7.4781 50.0211 7.20716 50.2291 6.97703C50.4371 6.7469 50.692 6.56277 50.977 6.43669C51.2621 6.31061 51.5709 6.24544 51.8833 6.24544C52.1957 6.24544 52.5045 6.31061 52.7896 6.43669C53.0746 6.56277 53.3295 6.7469 53.5375 6.97703C53.7455 7.20716 53.9019 7.4781 53.9965 7.77208C54.0911 8.06606 54.1217 8.37646 54.0863 8.68294C54.0945 8.97031 54.0418 9.25619 53.9316 9.52228C53.8214 9.78838 53.6562 10.0288 53.4465 10.2282ZM50.7446 9.87785C51.0471 10.1777 51.4534 10.3531 51.8817 10.369C52.0966 10.3782 52.3109 10.3388 52.508 10.2537C52.7051 10.1685 52.8798 10.04 53.0189 9.87785C53.1797 9.72172 53.3078 9.53583 53.3958 9.33081C53.4839 9.12578 53.5301 8.90563 53.532 8.68294C53.5447 8.46102 53.505 8.23923 53.4159 8.0351C53.3269 7.83097 53.1909 7.6501 53.0189 7.5068C52.7183 7.20371 52.311 7.02669 51.8817 7.01257C51.6666 7.00392 51.4523 7.04396 51.2552 7.12961C51.0581 7.21527 50.8834 7.34429 50.7446 7.5068C50.5864 7.66343 50.4611 7.84931 50.3758 8.05381C50.2905 8.2583 50.2468 8.4774 50.2473 8.69858C50.2336 8.91958 50.2713 9.14075 50.3575 9.34515C50.4437 9.54955 50.5761 9.73177 50.7446 9.87785ZM54.8624 10.7881V6.56839H55.4959L57.558 9.86847V6.56839H58.1249V10.7881H57.558L55.3407 7.34727V10.7881H54.8624Z" fill="white"></path><path d="M49.5374 16.0528C49.1326 16.0438 48.7303 16.116 48.3547 16.2651C47.9791 16.4142 47.638 16.6371 47.3522 16.9202C47.0664 17.2033 46.8418 17.5408 46.692 17.9122C46.5422 18.2836 46.4703 18.6811 46.4807 19.0808C46.4773 19.4781 46.5541 19.8721 46.7065 20.2399C46.8589 20.6076 47.0839 20.9417 47.3684 21.2226C47.6529 21.5036 47.9913 21.7258 48.3636 21.8763C48.736 22.0269 49.135 22.1027 49.5374 22.0993C49.9401 22.1061 50.3401 22.0326 50.7133 21.8832C51.0866 21.7338 51.4255 21.5115 51.7097 21.2296C51.9939 20.9478 52.2176 20.6122 52.3674 20.243C52.5172 19.8737 52.59 19.4784 52.5814 19.0808C52.5972 18.6808 52.5295 18.2819 52.3824 17.9089C52.2354 17.5359 52.0121 17.1968 51.7265 16.9127C51.441 16.6287 51.0992 16.4057 50.7226 16.2578C50.3459 16.1098 49.9425 16.0401 49.5374 16.0528ZM49.5374 20.8262C49.0701 20.7931 48.6328 20.5864 48.3136 20.2478C47.9944 19.9091 47.817 19.4637 47.817 19.001C47.817 18.5384 47.9944 18.0929 48.3136 17.7542C48.6328 17.4156 49.0701 17.2089 49.5374 17.1758C50.4623 17.1758 51.2415 17.8796 51.2415 19.0026C51.253 19.2333 51.2178 19.464 51.138 19.6811C51.0582 19.8983 50.9354 20.0976 50.7767 20.2673C50.6181 20.4371 50.4268 20.574 50.214 20.6699C50.0012 20.7659 49.7712 20.819 49.5374 20.8262ZM42.9267 16.0528C42.522 16.0438 42.1196 16.116 41.744 16.2651C41.3684 16.4142 41.0274 16.6371 40.7416 16.9202C40.4558 17.2033 40.2311 17.5408 40.0813 17.9122C39.9315 18.2836 39.8596 18.6811 39.87 19.0808C39.8666 19.4781 39.9434 19.8721 40.0958 20.2399C40.2482 20.6076 40.4733 20.9417 40.7578 21.2226C41.0423 21.5036 41.3806 21.7258 41.753 21.8763C42.1254 22.0269 42.5244 22.1027 42.9267 22.0993C43.3305 22.1079 43.7318 22.0356 44.1066 21.8869C44.4813 21.7383 44.8218 21.5162 45.1073 21.2342C45.3929 20.9522 45.6178 20.616 45.7683 20.2459C45.9189 19.8759 45.992 19.4795 45.9834 19.0808C45.9993 18.6797 45.9313 18.2797 45.7834 17.9058C45.6356 17.532 45.4112 17.1923 45.1242 16.908C44.8373 16.6238 44.494 16.4011 44.1158 16.2539C43.7377 16.1068 43.3329 16.0383 42.9267 16.0528ZM42.9267 20.8262C42.4594 20.7931 42.0222 20.5864 41.703 20.2478C41.3838 19.9091 41.2063 19.4637 41.2063 19.001C41.2063 18.5384 41.3838 18.0929 41.703 17.7542C42.0222 17.4156 42.4594 17.2089 42.9267 17.1758C43.8516 17.1758 44.6308 17.8796 44.6308 19.0026C44.6423 19.2333 44.6071 19.464 44.5273 19.6811C44.4475 19.8983 44.3247 20.0976 44.1661 20.2673C44.0074 20.4371 43.8161 20.574 43.6033 20.6699C43.3905 20.7659 43.1605 20.819 42.9267 20.8262ZM35.0364 16.9662V18.2174H38.093C38.0505 18.8247 37.7977 19.399 37.3772 19.844C37.0717 20.1481 36.7056 20.3862 36.3022 20.5434C35.8987 20.7007 35.4666 20.7735 35.0332 20.7574C34.587 20.7614 34.1447 20.6764 33.7326 20.5074C33.3205 20.3384 32.9473 20.089 32.6352 19.7741C32.3231 19.4592 32.0787 19.0853 31.9165 18.6749C31.7543 18.2644 31.6778 17.8258 31.6914 17.3854C31.6843 16.9468 31.7654 16.5112 31.9299 16.1038C32.0945 15.6964 32.3392 15.3253 32.65 15.0119C32.9609 14.6986 33.3315 14.4493 33.7406 14.2784C34.1497 14.1075 34.589 14.0185 35.0332 14.0165C35.9019 14.0248 36.7368 14.3501 37.3772 14.9299L38.3021 14.0165C37.442 13.2029 36.2938 12.7539 35.1029 12.7653C33.8566 12.7764 32.6636 13.2662 31.7767 14.1309C30.8898 14.9956 30.3787 16.1674 30.3516 17.3979C30.3787 18.6287 30.8897 19.8008 31.7765 20.666C32.6633 21.5313 33.8563 22.0217 35.1029 22.0336C36.5251 22.0336 37.5197 21.6114 38.3749 20.698C39.1245 19.8973 39.5319 18.8416 39.5121 17.7514C39.5276 17.4917 39.503 17.2311 39.4392 16.9787L35.0364 16.9662ZM67.3073 17.9484C67.0222 17.2477 66.3127 16.0528 64.7479 16.0528C63.1831 16.0528 61.8971 17.2477 61.8971 19.0714C61.8861 19.465 61.9553 19.8567 62.1006 20.2233C62.2459 20.59 62.4644 20.924 62.743 21.2056C63.0217 21.4872 63.3548 21.7106 63.7226 21.8625C64.0904 22.0144 64.4854 22.0918 64.8841 22.0899C65.3791 22.0949 65.8672 21.9752 66.3023 21.742C66.7374 21.5089 67.1051 21.17 67.3706 20.7574L66.376 20.0536C66.2229 20.3098 66.0047 20.5222 65.7431 20.6698C65.4815 20.8173 65.1854 20.895 64.8841 20.895C64.5711 20.9117 64.2604 20.8335 63.9937 20.6708C63.727 20.5081 63.5171 20.2687 63.3922 19.9848L67.4435 18.2988L67.3009 17.9484H67.3073ZM63.1895 18.9306C63.1746 18.4963 63.3284 18.0727 63.6192 17.7466C63.91 17.4204 64.316 17.2162 64.7542 17.1758C64.9833 17.1687 65.2101 17.2232 65.4104 17.3334C65.6106 17.4435 65.7769 17.6053 65.8914 17.8014L63.1895 18.9244V18.9306ZM59.8509 21.8084H61.2003V13.0499H59.8509V21.8084ZM57.716 16.6847C57.5013 16.4662 57.2449 16.2918 56.9617 16.1716C56.6785 16.0513 56.3739 15.9876 56.0657 15.984C55.2797 16.0195 54.5379 16.3532 53.995 16.9156C53.452 17.4779 53.1499 18.2256 53.1515 19.0026C53.1465 19.3851 53.2179 19.7649 53.3618 20.1201C53.5056 20.4754 53.7189 20.7991 53.9896 21.0729C54.2603 21.3466 54.583 21.5648 54.9393 21.7152C55.2955 21.8656 55.6783 21.9451 56.0657 21.9492C56.3655 21.9543 56.6629 21.8943 56.9366 21.7732C57.2104 21.6521 57.4537 21.4729 57.6494 21.2485H57.7191V21.6677C57.7191 22.7906 57.0856 23.4225 56.0847 23.4225C55.7563 23.4216 55.4364 23.32 55.1691 23.1317C54.9019 22.9434 54.7004 22.6778 54.5928 22.3715L53.4556 22.8626C53.6819 23.3846 54.0587 23.8294 54.5392 24.1414C55.0197 24.4535 55.5825 24.619 56.1575 24.6174C57.7191 24.6174 59.0083 23.704 59.0083 21.5269V16.2092H57.7413V16.7003L57.716 16.6847ZM56.1544 20.8262C55.6871 20.7931 55.2498 20.5864 54.9306 20.2478C54.6114 19.9091 54.434 19.4637 54.434 19.001C54.434 18.5384 54.6114 18.0929 54.9306 17.7542C55.2498 17.4156 55.6871 17.2089 56.1544 17.1758C57.0761 17.1758 57.7888 17.9484 57.7888 19.0026C57.7888 20.0567 57.0698 20.8262 56.148 20.8262H56.1544ZM73.4871 13.0343H70.2879V21.8084H71.6405V18.5115H73.4871C74.979 18.5115 76.4013 17.4573 76.4013 15.7713C76.4013 14.0853 74.9822 13.0343 73.4871 13.0343ZM73.56 17.2477H71.6405V14.2292H73.56C73.9626 14.228 74.35 14.3808 74.6411 14.6554C74.9322 14.93 75.1044 15.3053 75.1216 15.7025C75.1067 16.1071 74.9375 16.4912 74.6479 16.7778C74.3583 17.0644 73.9697 17.2322 73.56 17.2477ZM81.7322 15.9965C80.7376 15.9965 79.743 16.4157 79.3883 17.3291L80.5951 17.8202C80.7152 17.6127 80.893 17.4434 81.1074 17.3326C81.3219 17.2217 81.564 17.1738 81.8051 17.1946C82.1416 17.1697 82.4752 17.2717 82.7385 17.4801C83.0019 17.6885 83.1754 17.9878 83.2242 18.3175V18.3895C82.8119 18.1609 82.3476 18.0393 81.8748 18.036C80.6078 18.036 79.3154 18.7398 79.3154 20.0035C79.3154 21.1953 80.3829 21.9679 81.5327 21.9679C81.8652 21.9788 82.1952 21.9076 82.4928 21.7607C82.7904 21.6137 83.0461 21.3957 83.2368 21.1265H83.3065V21.8272H84.5735V18.4552C84.431 16.9099 83.221 15.9997 81.7227 15.9997L81.7322 15.9965ZM81.5897 20.8387C81.1653 20.8387 80.5254 20.6291 80.5254 20.0661C80.5254 19.3654 81.3078 19.1527 81.9476 19.1527C82.3664 19.1542 82.7793 19.2506 83.1545 19.4342C83.0982 19.8092 82.9117 20.1531 82.6268 20.4071C82.3418 20.6611 81.9763 20.8092 81.5929 20.8262L81.5897 20.8387ZM89.0556 16.2061L87.5605 19.9973H87.4908L85.9261 16.2061H84.5038L86.851 21.5238L85.5016 24.4735H86.851L90.4747 16.1905L89.0556 16.2061ZM77.114 21.8209H78.4634V13.0624H77.114V21.8209Z" fill="white"></path><path d="M10.8494 24.399L10.3299 23.8891C9.96842 23.5013 9.77413 22.9897 9.78826 22.4627V6.95395C9.76614 6.6971 9.79652 6.43847 9.8776 6.19344C9.95867 5.94841 10.0888 5.72197 10.2602 5.52757L10.7037 5.08965L20.2982 14.4112V15.0743L10.8494 24.399ZM11.0553 7.19481V22.4315L18.8348 14.749L11.0553 7.19481Z" fill="white"></path><path d="M22.3916 18.5339L18.958 15.1431V14.4143L22.5057 10.914L22.9649 11.3644L26.3732 13.2882C26.6767 13.4305 26.9359 13.6508 27.1237 13.9259C27.3115 14.2011 27.421 14.521 27.4407 14.8522C27.421 15.1834 27.3115 15.5033 27.1237 15.7785C26.9359 16.0536 26.6767 16.2739 26.3732 16.4162L22.3916 18.5339ZM20.3802 14.7803L22.6197 16.9918L25.7587 15.3277C26.009 15.1838 26.1737 15.0149 26.1737 14.8585C26.1737 14.7021 26.009 14.5457 25.746 14.3861L22.5785 12.6063L20.3802 14.7803Z" fill="white"></path><path d="M11.3841 24.4146C11.1753 24.4183 10.968 24.38 10.7746 24.302C10.5813 24.224 10.4061 24.108 10.2596 23.961L9.81934 23.52L19.5912 13.8606L23.6108 17.8301L12.4579 24.1612C12.1217 24.3184 11.756 24.4047 11.3841 24.4146ZM19.5912 15.6405L12.3534 22.7818L21.5392 17.558L19.5912 15.6405Z" fill="white"></path><path d="M19.5944 15.6405L9.81934 6.0437L10.2691 5.59952C10.852 5.02396 11.6692 4.97391 12.5181 5.42435L23.614 11.6585L19.5944 15.6405ZM12.3534 6.78191L19.5912 13.8607L21.5392 11.9338L12.3534 6.78191Z" fill="white"></path></svg>