<svg xmlns="http://www.w3.org/2000/svg" width="459" height="544" viewBox="0 0 459 544" fill="none"><mask id="path-1-inside-1_194_212" fill="white"><path d="M230.916 542.998H228.53C228.22 542.905 227.91 542.75 227.569 542.688C224.562 542.192 221.741 541.138 218.983 539.867C199.269 530.723 180.795 519.471 163.189 506.762C153.611 499.85 144.869 491.884 135.291 484.972C134.176 484.166 133.246 483.112 132.13 482.275C121.591 474.464 111.765 465.816 102.621 456.424C89.6953 443.095 78.3815 428.496 68.4005 412.873C54.452 391.052 43.3862 367.835 34.4591 343.596C21.6885 308.879 13.3503 273.109 8.82481 236.44C7.52295 225.808 6.77903 215.114 6.53105 204.42C6.28308 193.851 5.88012 183.312 5.53916 172.742C5.07421 159.568 4.60926 146.364 4.14431 133.19C3.67935 120.76 3.2144 108.331 2.74945 95.8699C2.40849 86.2919 2.06752 76.7449 1.72656 67.1669C1.60257 63.5403 1.41659 59.9447 1.23061 56.3181C1.23061 55.8531 1.01364 55.3881 0.889648 54.9232V51.0486C1.07563 50.3357 1.3236 49.6538 1.47859 48.9408C1.85055 47.081 2.81145 45.7482 4.57826 45.0662C5.78713 44.6013 6.99601 44.1673 8.23587 43.9194C15.1481 42.4625 22.0914 41.0677 29.0347 39.6418C42.7042 36.8211 56.3738 33.9694 70.0434 31.1487C86.3786 27.8011 102.745 24.4844 119.08 21.1988C131.603 18.688 144.157 16.3323 156.679 13.8525C170.473 11.1248 184.235 8.36611 198.029 5.6384C206.863 3.90258 215.728 2.25976 224.593 0.585932C225.585 0.399951 226.608 0.275964 227.631 0.151978C229.522 0.151978 231.412 0.151978 233.272 0.151978C234.078 0.306961 234.915 0.430948 235.721 0.585932C253.451 4.02657 271.212 7.46721 288.942 10.9698C307.974 14.7514 327.006 18.595 346.038 22.4386C364.915 26.2512 383.792 30.0638 402.669 33.8764C418.633 37.1001 434.596 40.3857 450.714 42.8345C452.295 43.0824 453.907 43.5784 455.364 44.2293C457.286 45.0972 458.339 46.7711 458.556 48.9098C458.587 49.2508 458.742 49.5608 458.835 49.8707V54.6442C458.742 55.1712 458.618 55.6981 458.587 56.2251C458.432 62.4864 458.339 68.7167 458.184 74.9781C457.72 92.5222 457.255 110.066 456.759 127.611C456.387 141.497 455.984 155.353 455.581 169.239C455.364 176.461 455.178 183.715 454.868 190.937C454.31 204.699 453.721 218.493 453.163 232.256C452.884 238.61 452.481 244.933 451.644 251.225C450.187 262.291 447.925 273.202 444.98 283.989C440.485 300.51 435.03 316.691 429.017 332.716C422.631 349.764 415.533 366.502 407.164 382.683C386.427 422.792 358.437 457.168 324.403 486.708C299.388 508.405 271.646 525.763 241.517 539.464C238.201 540.952 234.884 542.378 231.257 542.843C231.133 542.843 230.978 542.967 230.854 543.029L230.916 542.998ZM115.64 163.319C112.943 165.427 110.432 167.41 107.859 169.363C98.8083 176.275 90.1293 183.529 82.2561 191.774C74.1659 200.236 67.0677 209.442 61.4883 219.764C61.0233 220.663 60.8373 221.469 61.0853 222.43C63.1931 231.388 65.1149 240.408 67.4396 249.335C73.546 272.706 81.4812 295.489 90.5942 317.868C99.8622 340.651 110.091 363 121.932 384.573C122.645 385.906 123.575 386.805 124.939 387.456C133.773 391.672 142.886 395.112 152.185 398.057C153.363 398.429 154.571 398.677 155.811 398.801C157.609 398.987 159.407 399.018 161.453 399.142C161.05 398.522 160.802 398.119 160.554 397.716C156.896 392.106 153.115 386.588 149.612 380.885C143.506 370.997 138.267 360.675 134.393 349.671C130.27 337.985 128.069 325.928 128.038 313.529C128.038 313.188 128.1 312.847 128.131 312.506C130.797 318.24 133.463 323.882 135.353 329.833C136.376 333.088 137.523 336.312 138.825 339.473C145.83 356.521 156.369 371.152 169.574 383.891C177.075 391.145 185.041 397.84 193.348 404.163C204.631 412.749 216.038 421.181 227.414 429.643C234.512 434.912 241.486 440.306 247.717 446.598C256.551 455.525 263.153 465.816 266.377 478.06C266.439 478.277 266.563 478.493 266.749 478.865C268.143 476.665 269.569 474.619 270.22 472.201C271.243 468.42 272.359 464.669 273.32 460.887C276.513 448.365 278.651 435.687 279.333 422.761C279.891 412.191 279.519 401.653 278 391.145C276.513 380.916 274.033 370.935 270.313 361.264C264.176 345.363 255.249 331.166 244.338 318.147C238.418 311.08 231.877 304.54 225.461 297.907C220.594 292.885 215.697 287.895 211.326 282.439C203.081 272.148 198.494 260.432 197.657 247.258C197.192 239.571 198.029 232.007 199.734 224.537C199.796 224.289 199.951 224.072 200.199 223.607C200.199 224.165 200.23 224.413 200.261 224.63C200.54 229.373 200.695 234.146 201.191 238.858C201.965 246.266 204.166 253.302 207.545 259.936C213.155 270.877 221.493 279.34 231.536 286.252C232.156 286.655 232.807 286.996 233.52 287.275C235.256 287.988 236.558 287.678 237.798 286.252C238.356 285.632 238.852 284.919 239.224 284.175C243.222 276.457 247.965 269.173 252.428 261.764C252.614 261.485 252.831 261.206 253.079 260.834L255.497 262.322C253.947 264.74 252.49 267.034 251.033 269.359C248.864 272.799 247.004 276.395 245.671 280.269C243.47 286.686 243.253 293.071 245.609 299.487C247.407 304.354 250.227 308.6 253.637 312.444C256.396 315.544 259.402 318.457 262.254 321.495C265.788 325.246 269.383 328.934 272.762 332.84C278.403 339.411 282.805 346.726 285.192 355.127C285.254 355.313 285.378 355.467 285.502 355.653L287.485 355.251C287.485 353.205 287.547 351.283 287.485 349.361C287.361 346.85 287.299 344.309 286.866 341.829C286.432 339.287 285.657 336.838 284.913 334.359C281.286 321.991 277.597 309.654 273.94 297.318C272.018 290.746 270.344 284.144 269.817 277.263C269.197 269.204 270.065 261.33 272.731 253.674C273.351 251.907 274.219 250.203 275.242 248.653C277.04 245.894 279.705 244.313 282.96 243.848C286.835 243.321 290.709 242.825 294.615 242.391C302.147 241.524 309.679 240.78 317.211 239.881C325.673 238.889 334.136 237.804 342.598 236.719C352.393 235.448 362.095 233.805 371.735 231.636C373.966 231.14 375.981 230.21 377.593 228.598C379.484 226.645 381.251 224.537 383.048 222.523C383.11 222.461 383.048 222.275 383.079 222.058C381.282 222.182 379.577 222.337 377.841 222.368C370.557 222.585 363.396 221.531 356.329 219.857C350.223 218.4 344.116 216.819 338.041 215.207C336.305 214.742 334.693 214.897 333.144 215.672C331.656 216.447 330.168 217.284 328.711 218.059C328.06 218.4 327.409 218.71 326.634 219.082C326.603 218.524 326.572 218.152 326.541 217.749C326.262 214.68 324.713 212.573 321.737 211.612C320.838 211.333 319.908 211.147 318.978 211.054C317.893 210.961 316.808 211.054 315.568 211.054L316.219 208.76C319.35 209.256 322.326 209.69 325.301 210.186C331.842 211.302 338.382 212.418 344.922 213.626C352.114 214.99 359.274 216.633 366.62 217.16C373.377 217.656 379.98 217.098 386.427 214.897C391.634 213.13 396.563 210.837 400.686 207.086C407.474 200.918 410.326 193.169 409.241 184.087C408.714 179.685 406.11 176.678 401.863 175.222C400.748 174.85 399.57 174.54 398.392 174.478C396.16 174.354 393.928 174.385 391.727 174.478C383.761 174.726 376.012 173.579 368.387 171.347C361.94 169.456 355.802 166.852 349.789 163.908C344.705 161.428 339.374 159.847 333.702 159.568C326.944 159.227 320.497 160.622 314.236 163.04C311.26 164.187 308.222 164.683 305.061 164.125C296.289 162.575 290.213 157.739 287.082 149.308C286.897 148.812 286.804 148.285 286.618 147.51C288.012 148.316 289.097 148.967 290.213 149.618C292.941 151.168 295.483 152.935 297.714 155.167C298.861 156.282 300.256 157.243 301.713 157.956C305.96 160.095 310.051 159.413 313.461 156.128C314.36 155.291 315.352 154.671 316.498 154.299C317.304 154.051 318.11 153.865 318.916 153.617C319.753 153.369 320.59 153.09 321.489 152.811C321.427 152.253 321.396 151.819 321.334 151.385C320.869 148.502 319.66 145.899 318.048 143.481C314.112 137.684 309.028 133.5 301.961 132.136C297.931 131.361 293.871 130.617 289.841 129.811C288.043 129.47 286.246 129.129 284.479 128.602C282.588 128.013 281.968 126.867 282.34 124.945C282.557 123.767 282.898 122.62 283.239 121.504C284.231 118.126 285.285 114.778 286.215 111.368C287.207 107.742 288.074 104.084 289.004 100.333L286.742 99.0625C285.657 99.8375 284.603 100.612 283.58 101.356C282.495 102.131 281.41 102.937 280.356 103.743C279.333 104.518 278.279 105.262 277.257 106.037C276.203 106.812 275.18 107.556 274.126 108.331C273.041 109.136 271.987 109.942 270.871 110.717C269.848 111.43 268.949 112.298 267.679 112.918C267.741 112.515 267.741 112.298 267.772 112.112C268.484 107.184 268.515 102.224 267.772 97.2957C266.718 90.3525 264.207 83.9051 260.859 77.7678C256.52 69.8016 251.033 62.6414 245.547 55.4811C245.454 55.3572 245.268 55.2952 245.051 55.1402C244.927 55.6361 244.803 56.0081 244.71 56.38C243.811 59.9757 243.098 63.6333 241.982 67.1669C240.308 72.3744 237.271 76.8689 233.954 81.1464C231.474 84.3701 228.871 87.5008 226.422 90.7554C219.944 99.4345 211.543 105.448 201.315 109.043C195.363 111.151 189.195 112.329 182.995 113.445C170.07 115.739 157.516 119.241 145.365 124.201C126.147 132.043 109.037 143.14 94.2828 157.801C80.1173 171.843 69.0825 188.116 60.4034 206.001C59.8144 207.241 59.5045 208.605 59.1635 209.938C58.8535 211.178 59.3185 212.325 59.6285 213.719C60.1554 213.131 60.4964 212.759 60.8063 212.387C64.185 208.295 67.5636 204.203 70.9113 200.081C77.5446 191.96 84.5808 184.211 92.857 177.701C99.8002 172.246 106.836 166.914 113.811 161.521C113.935 161.428 114.059 161.397 114.307 161.304L115.795 163.164L115.64 163.319ZM417.92 221.376C417.486 221.376 417.238 221.376 417.021 221.376C415.409 221.624 414.231 222.461 413.239 223.762C408.745 229.466 403.754 234.704 398.175 239.354C388.659 247.227 377.996 252.806 365.907 255.441C356.391 257.518 346.72 258.417 337.018 259.13C332.307 259.471 327.626 259.75 322.915 260.122C316.281 260.649 309.679 261.268 303.077 261.857C301.341 262.012 299.605 262.136 297.9 262.415C294.491 262.973 292.228 265.019 291.794 268.057C291.608 269.266 291.67 270.536 291.856 271.745C292.445 275.465 293.096 279.185 293.778 282.873C294.925 289.382 296.413 295.768 298.706 301.998C301.031 308.29 302.984 314.676 304.627 321.154C306.393 328.097 307.664 335.103 308.253 342.232C308.78 348.524 308.718 354.817 308.036 361.109C307.447 366.564 305.805 371.555 302.271 375.832C300.194 378.343 299.202 381.226 299.357 384.511C299.45 386.03 299.574 387.58 299.698 389.099C300.07 394.43 300.473 399.793 300.783 405.124C301.062 410.115 301.403 415.136 301.403 420.127C301.403 424.497 300.969 428.837 300.752 433.207C300.752 433.579 300.752 433.92 300.752 434.54C303.046 432.928 305.092 431.471 307.137 429.984C307.54 429.705 307.85 429.302 308.191 428.961C312.438 424.466 316.684 419.941 320.962 415.446C327.502 408.534 334.012 401.56 339.808 393.996C369.627 355.096 388.194 311.204 397.307 263.19C397.772 260.803 398.175 258.417 398.578 256.03C399.198 252.403 400.686 249.087 402.576 246.018C407.35 238.3 412.185 230.644 417.021 222.956C417.3 222.492 417.579 222.058 417.951 221.469L417.92 221.376ZM224.686 48.4139C224.097 49.4988 223.663 50.4907 223.043 51.3896C221.462 53.6523 219.789 55.8841 218.115 58.1159C216.937 59.6967 215.759 61.3085 214.426 62.7654C212.194 65.2761 209.405 66.9809 206.119 67.6629C200.54 68.8097 194.96 69.9566 189.381 71.0105C179.71 72.8703 170.008 74.6681 160.337 76.4969C148.992 78.6357 137.647 80.7745 126.302 82.9132C115.454 84.959 104.574 86.9738 93.7249 88.9886C83.217 90.9414 72.6781 92.8942 62.1702 94.878C60.6204 95.157 59.0705 95.5599 57.5827 96.0869C55.9089 96.7068 54.855 98.0396 54.483 99.8065C54.297 100.674 54.235 101.573 54.235 102.472C54.266 106.936 54.328 111.399 54.452 115.863C54.545 119.83 54.638 123.798 54.886 127.766C55.2579 132.973 55.5369 138.149 55.1029 143.357C54.886 145.961 54.638 148.595 54.452 151.199C53.9871 158.39 54.142 165.582 54.452 172.742C54.483 173.672 54.607 174.571 54.7 175.841C55.1339 175.19 55.3819 174.85 55.6299 174.509C57.6137 171.533 59.5355 168.526 61.5813 165.613C74.1039 147.913 89.1683 132.756 107.146 120.574C131.882 103.836 159.345 94.475 188.699 90.0425C191.086 89.6705 193.503 89.2986 195.89 88.8336C197.316 88.5546 198.556 87.8727 199.579 86.7568C206.863 78.8217 213.899 70.7005 220.688 62.3314C223.849 58.4258 225.089 53.7453 226.949 49.1888L224.655 48.3829L224.686 48.4139ZM301.961 77.4578L301.806 77.7368C302.085 78.1398 302.364 78.5117 302.674 78.9147C304.689 81.6114 306.61 84.3701 308.129 87.4078C310.144 91.4683 310.95 95.7459 310.454 100.24C310.237 102.348 309.927 104.456 309.741 106.595C309.555 108.579 310.361 110.19 311.911 111.368C312.965 112.174 314.112 112.887 315.228 113.6C317.986 115.336 320.807 117.01 323.535 118.807C326.572 120.822 329.207 123.271 331.222 126.371C332.028 127.611 332.989 128.757 333.981 129.873C339.343 136.073 346.162 140.133 353.88 142.644C362.219 145.341 370.712 147.51 379.267 149.494C384.412 150.703 389.589 151.819 394.796 152.935C399.136 153.865 401.987 151.881 402.638 147.479C402.824 146.271 402.886 145 402.886 143.791C403.041 130.71 403.537 117.63 404.312 104.549C404.374 103.557 404.405 102.565 404.343 101.573C404.188 98.7526 402.762 96.8308 400.035 95.9629C399.229 95.7149 398.423 95.4979 397.586 95.3429C393.68 94.599 389.806 93.8861 385.9 93.1422C373.749 90.8174 361.599 88.4307 349.417 86.1369C335.84 83.5642 322.264 81.0534 308.656 78.5117C306.424 78.1088 304.162 77.7368 301.93 77.3648L301.961 77.4578ZM139.724 413.493L139.507 413.679C139.631 413.896 139.724 414.113 139.848 414.33C144.281 420.53 148.713 426.76 153.177 432.959C153.518 433.424 153.983 433.827 154.447 434.199C157.733 436.834 161.019 439.469 164.335 442.072C171.248 447.559 178.191 453.045 185.878 457.385C193.937 461.941 202.151 466.25 210.335 470.558C215.325 473.193 220.409 475.673 225.461 478.152C228.127 479.454 230.854 479.733 233.613 478.276C234.078 478.029 234.636 477.874 235.132 477.719C237.302 477.13 238.914 477.657 240.153 479.547C240.742 480.446 241.207 481.469 241.61 482.461C243.594 487.699 245.547 492.938 247.531 498.176C247.686 498.61 247.903 499.044 248.089 499.509L249.886 499.137C249.576 497.463 249.235 495.883 248.988 494.271C247.314 482.864 242.416 472.945 235.194 464.08C230.885 458.78 225.926 454.161 220.44 450.1C206.925 440.058 193.348 430.046 179.834 420.003C176.61 417.616 173.262 417.089 169.481 418.453C164.459 420.251 159.345 420.344 154.292 418.763C149.829 417.337 145.427 415.632 140.995 414.051C140.53 413.896 140.096 413.71 139.662 413.524L139.724 413.493Z"></path></mask><path d="M230.916 542.998H228.53C228.22 542.905 227.91 542.75 227.569 542.688C224.562 542.192 221.741 541.138 218.983 539.867C199.269 530.723 180.795 519.471 163.189 506.762C153.611 499.85 144.869 491.884 135.291 484.972C134.176 484.166 133.246 483.112 132.13 482.275C121.591 474.464 111.765 465.816 102.621 456.424C89.6953 443.095 78.3815 428.496 68.4005 412.873C54.452 391.052 43.3862 367.835 34.4591 343.596C21.6885 308.879 13.3503 273.109 8.82481 236.44C7.52295 225.808 6.77903 215.114 6.53105 204.42C6.28308 193.851 5.88012 183.312 5.53916 172.742C5.07421 159.568 4.60926 146.364 4.14431 133.19C3.67935 120.76 3.2144 108.331 2.74945 95.8699C2.40849 86.2919 2.06752 76.7449 1.72656 67.1669C1.60257 63.5403 1.41659 59.9447 1.23061 56.3181C1.23061 55.8531 1.01364 55.3881 0.889648 54.9232V51.0486C1.07563 50.3357 1.3236 49.6538 1.47859 48.9408C1.85055 47.081 2.81145 45.7482 4.57826 45.0662C5.78713 44.6013 6.99601 44.1673 8.23587 43.9194C15.1481 42.4625 22.0914 41.0677 29.0347 39.6418C42.7042 36.8211 56.3738 33.9694 70.0434 31.1487C86.3786 27.8011 102.745 24.4844 119.08 21.1988C131.603 18.688 144.157 16.3323 156.679 13.8525C170.473 11.1248 184.235 8.36611 198.029 5.6384C206.863 3.90258 215.728 2.25976 224.593 0.585932C225.585 0.399951 226.608 0.275964 227.631 0.151978C229.522 0.151978 231.412 0.151978 233.272 0.151978C234.078 0.306961 234.915 0.430948 235.721 0.585932C253.451 4.02657 271.212 7.46721 288.942 10.9698C307.974 14.7514 327.006 18.595 346.038 22.4386C364.915 26.2512 383.792 30.0638 402.669 33.8764C418.633 37.1001 434.596 40.3857 450.714 42.8345C452.295 43.0824 453.907 43.5784 455.364 44.2293C457.286 45.0972 458.339 46.7711 458.556 48.9098C458.587 49.2508 458.742 49.5608 458.835 49.8707V54.6442C458.742 55.1712 458.618 55.6981 458.587 56.2251C458.432 62.4864 458.339 68.7167 458.184 74.9781C457.72 92.5222 457.255 110.066 456.759 127.611C456.387 141.497 455.984 155.353 455.581 169.239C455.364 176.461 455.178 183.715 454.868 190.937C454.31 204.699 453.721 218.493 453.163 232.256C452.884 238.61 452.481 244.933 451.644 251.225C450.187 262.291 447.925 273.202 444.98 283.989C440.485 300.51 435.03 316.691 429.017 332.716C422.631 349.764 415.533 366.502 407.164 382.683C386.427 422.792 358.437 457.168 324.403 486.708C299.388 508.405 271.646 525.763 241.517 539.464C238.201 540.952 234.884 542.378 231.257 542.843C231.133 542.843 230.978 542.967 230.854 543.029L230.916 542.998ZM115.64 163.319C112.943 165.427 110.432 167.41 107.859 169.363C98.8083 176.275 90.1293 183.529 82.2561 191.774C74.1659 200.236 67.0677 209.442 61.4883 219.764C61.0233 220.663 60.8373 221.469 61.0853 222.43C63.1931 231.388 65.1149 240.408 67.4396 249.335C73.546 272.706 81.4812 295.489 90.5942 317.868C99.8622 340.651 110.091 363 121.932 384.573C122.645 385.906 123.575 386.805 124.939 387.456C133.773 391.672 142.886 395.112 152.185 398.057C153.363 398.429 154.571 398.677 155.811 398.801C157.609 398.987 159.407 399.018 161.453 399.142C161.05 398.522 160.802 398.119 160.554 397.716C156.896 392.106 153.115 386.588 149.612 380.885C143.506 370.997 138.267 360.675 134.393 349.671C130.27 337.985 128.069 325.928 128.038 313.529C128.038 313.188 128.1 312.847 128.131 312.506C130.797 318.24 133.463 323.882 135.353 329.833C136.376 333.088 137.523 336.312 138.825 339.473C145.83 356.521 156.369 371.152 169.574 383.891C177.075 391.145 185.041 397.84 193.348 404.163C204.631 412.749 216.038 421.181 227.414 429.643C234.512 434.912 241.486 440.306 247.717 446.598C256.551 455.525 263.153 465.816 266.377 478.06C266.439 478.277 266.563 478.493 266.749 478.865C268.143 476.665 269.569 474.619 270.22 472.201C271.243 468.42 272.359 464.669 273.32 460.887C276.513 448.365 278.651 435.687 279.333 422.761C279.891 412.191 279.519 401.653 278 391.145C276.513 380.916 274.033 370.935 270.313 361.264C264.176 345.363 255.249 331.166 244.338 318.147C238.418 311.08 231.877 304.54 225.461 297.907C220.594 292.885 215.697 287.895 211.326 282.439C203.081 272.148 198.494 260.432 197.657 247.258C197.192 239.571 198.029 232.007 199.734 224.537C199.796 224.289 199.951 224.072 200.199 223.607C200.199 224.165 200.23 224.413 200.261 224.63C200.54 229.373 200.695 234.146 201.191 238.858C201.965 246.266 204.166 253.302 207.545 259.936C213.155 270.877 221.493 279.34 231.536 286.252C232.156 286.655 232.807 286.996 233.52 287.275C235.256 287.988 236.558 287.678 237.798 286.252C238.356 285.632 238.852 284.919 239.224 284.175C243.222 276.457 247.965 269.173 252.428 261.764C252.614 261.485 252.831 261.206 253.079 260.834L255.497 262.322C253.947 264.74 252.49 267.034 251.033 269.359C248.864 272.799 247.004 276.395 245.671 280.269C243.47 286.686 243.253 293.071 245.609 299.487C247.407 304.354 250.227 308.6 253.637 312.444C256.396 315.544 259.402 318.457 262.254 321.495C265.788 325.246 269.383 328.934 272.762 332.84C278.403 339.411 282.805 346.726 285.192 355.127C285.254 355.313 285.378 355.467 285.502 355.653L287.485 355.251C287.485 353.205 287.547 351.283 287.485 349.361C287.361 346.85 287.299 344.309 286.866 341.829C286.432 339.287 285.657 336.838 284.913 334.359C281.286 321.991 277.597 309.654 273.94 297.318C272.018 290.746 270.344 284.144 269.817 277.263C269.197 269.204 270.065 261.33 272.731 253.674C273.351 251.907 274.219 250.203 275.242 248.653C277.04 245.894 279.705 244.313 282.96 243.848C286.835 243.321 290.709 242.825 294.615 242.391C302.147 241.524 309.679 240.78 317.211 239.881C325.673 238.889 334.136 237.804 342.598 236.719C352.393 235.448 362.095 233.805 371.735 231.636C373.966 231.14 375.981 230.21 377.593 228.598C379.484 226.645 381.251 224.537 383.048 222.523C383.11 222.461 383.048 222.275 383.079 222.058C381.282 222.182 379.577 222.337 377.841 222.368C370.557 222.585 363.396 221.531 356.329 219.857C350.223 218.4 344.116 216.819 338.041 215.207C336.305 214.742 334.693 214.897 333.144 215.672C331.656 216.447 330.168 217.284 328.711 218.059C328.06 218.4 327.409 218.71 326.634 219.082C326.603 218.524 326.572 218.152 326.541 217.749C326.262 214.68 324.713 212.573 321.737 211.612C320.838 211.333 319.908 211.147 318.978 211.054C317.893 210.961 316.808 211.054 315.568 211.054L316.219 208.76C319.35 209.256 322.326 209.69 325.301 210.186C331.842 211.302 338.382 212.418 344.922 213.626C352.114 214.99 359.274 216.633 366.62 217.16C373.377 217.656 379.98 217.098 386.427 214.897C391.634 213.13 396.563 210.837 400.686 207.086C407.474 200.918 410.326 193.169 409.241 184.087C408.714 179.685 406.11 176.678 401.863 175.222C400.748 174.85 399.57 174.54 398.392 174.478C396.16 174.354 393.928 174.385 391.727 174.478C383.761 174.726 376.012 173.579 368.387 171.347C361.94 169.456 355.802 166.852 349.789 163.908C344.705 161.428 339.374 159.847 333.702 159.568C326.944 159.227 320.497 160.622 314.236 163.04C311.26 164.187 308.222 164.683 305.061 164.125C296.289 162.575 290.213 157.739 287.082 149.308C286.897 148.812 286.804 148.285 286.618 147.51C288.012 148.316 289.097 148.967 290.213 149.618C292.941 151.168 295.483 152.935 297.714 155.167C298.861 156.282 300.256 157.243 301.713 157.956C305.96 160.095 310.051 159.413 313.461 156.128C314.36 155.291 315.352 154.671 316.498 154.299C317.304 154.051 318.11 153.865 318.916 153.617C319.753 153.369 320.59 153.09 321.489 152.811C321.427 152.253 321.396 151.819 321.334 151.385C320.869 148.502 319.66 145.899 318.048 143.481C314.112 137.684 309.028 133.5 301.961 132.136C297.931 131.361 293.871 130.617 289.841 129.811C288.043 129.47 286.246 129.129 284.479 128.602C282.588 128.013 281.968 126.867 282.34 124.945C282.557 123.767 282.898 122.62 283.239 121.504C284.231 118.126 285.285 114.778 286.215 111.368C287.207 107.742 288.074 104.084 289.004 100.333L286.742 99.0625C285.657 99.8375 284.603 100.612 283.58 101.356C282.495 102.131 281.41 102.937 280.356 103.743C279.333 104.518 278.279 105.262 277.257 106.037C276.203 106.812 275.18 107.556 274.126 108.331C273.041 109.136 271.987 109.942 270.871 110.717C269.848 111.43 268.949 112.298 267.679 112.918C267.741 112.515 267.741 112.298 267.772 112.112C268.484 107.184 268.515 102.224 267.772 97.2957C266.718 90.3525 264.207 83.9051 260.859 77.7678C256.52 69.8016 251.033 62.6414 245.547 55.4811C245.454 55.3572 245.268 55.2952 245.051 55.1402C244.927 55.6361 244.803 56.0081 244.71 56.38C243.811 59.9757 243.098 63.6333 241.982 67.1669C240.308 72.3744 237.271 76.8689 233.954 81.1464C231.474 84.3701 228.871 87.5008 226.422 90.7554C219.944 99.4345 211.543 105.448 201.315 109.043C195.363 111.151 189.195 112.329 182.995 113.445C170.07 115.739 157.516 119.241 145.365 124.201C126.147 132.043 109.037 143.14 94.2828 157.801C80.1173 171.843 69.0825 188.116 60.4034 206.001C59.8144 207.241 59.5045 208.605 59.1635 209.938C58.8535 211.178 59.3185 212.325 59.6285 213.719C60.1554 213.131 60.4964 212.759 60.8063 212.387C64.185 208.295 67.5636 204.203 70.9113 200.081C77.5446 191.96 84.5808 184.211 92.857 177.701C99.8002 172.246 106.836 166.914 113.811 161.521C113.935 161.428 114.059 161.397 114.307 161.304L115.795 163.164L115.64 163.319ZM417.92 221.376C417.486 221.376 417.238 221.376 417.021 221.376C415.409 221.624 414.231 222.461 413.239 223.762C408.745 229.466 403.754 234.704 398.175 239.354C388.659 247.227 377.996 252.806 365.907 255.441C356.391 257.518 346.72 258.417 337.018 259.13C332.307 259.471 327.626 259.75 322.915 260.122C316.281 260.649 309.679 261.268 303.077 261.857C301.341 262.012 299.605 262.136 297.9 262.415C294.491 262.973 292.228 265.019 291.794 268.057C291.608 269.266 291.67 270.536 291.856 271.745C292.445 275.465 293.096 279.185 293.778 282.873C294.925 289.382 296.413 295.768 298.706 301.998C301.031 308.29 302.984 314.676 304.627 321.154C306.393 328.097 307.664 335.103 308.253 342.232C308.78 348.524 308.718 354.817 308.036 361.109C307.447 366.564 305.805 371.555 302.271 375.832C300.194 378.343 299.202 381.226 299.357 384.511C299.45 386.03 299.574 387.58 299.698 389.099C300.07 394.43 300.473 399.793 300.783 405.124C301.062 410.115 301.403 415.136 301.403 420.127C301.403 424.497 300.969 428.837 300.752 433.207C300.752 433.579 300.752 433.92 300.752 434.54C303.046 432.928 305.092 431.471 307.137 429.984C307.54 429.705 307.85 429.302 308.191 428.961C312.438 424.466 316.684 419.941 320.962 415.446C327.502 408.534 334.012 401.56 339.808 393.996C369.627 355.096 388.194 311.204 397.307 263.19C397.772 260.803 398.175 258.417 398.578 256.03C399.198 252.403 400.686 249.087 402.576 246.018C407.35 238.3 412.185 230.644 417.021 222.956C417.3 222.492 417.579 222.058 417.951 221.469L417.92 221.376ZM224.686 48.4139C224.097 49.4988 223.663 50.4907 223.043 51.3896C221.462 53.6523 219.789 55.8841 218.115 58.1159C216.937 59.6967 215.759 61.3085 214.426 62.7654C212.194 65.2761 209.405 66.9809 206.119 67.6629C200.54 68.8097 194.96 69.9566 189.381 71.0105C179.71 72.8703 170.008 74.6681 160.337 76.4969C148.992 78.6357 137.647 80.7745 126.302 82.9132C115.454 84.959 104.574 86.9738 93.7249 88.9886C83.217 90.9414 72.6781 92.8942 62.1702 94.878C60.6204 95.157 59.0705 95.5599 57.5827 96.0869C55.9089 96.7068 54.855 98.0396 54.483 99.8065C54.297 100.674 54.235 101.573 54.235 102.472C54.266 106.936 54.328 111.399 54.452 115.863C54.545 119.83 54.638 123.798 54.886 127.766C55.2579 132.973 55.5369 138.149 55.1029 143.357C54.886 145.961 54.638 148.595 54.452 151.199C53.9871 158.39 54.142 165.582 54.452 172.742C54.483 173.672 54.607 174.571 54.7 175.841C55.1339 175.19 55.3819 174.85 55.6299 174.509C57.6137 171.533 59.5355 168.526 61.5813 165.613C74.1039 147.913 89.1683 132.756 107.146 120.574C131.882 103.836 159.345 94.475 188.699 90.0425C191.086 89.6705 193.503 89.2986 195.89 88.8336C197.316 88.5546 198.556 87.8727 199.579 86.7568C206.863 78.8217 213.899 70.7005 220.688 62.3314C223.849 58.4258 225.089 53.7453 226.949 49.1888L224.655 48.3829L224.686 48.4139ZM301.961 77.4578L301.806 77.7368C302.085 78.1398 302.364 78.5117 302.674 78.9147C304.689 81.6114 306.61 84.3701 308.129 87.4078C310.144 91.4683 310.95 95.7459 310.454 100.24C310.237 102.348 309.927 104.456 309.741 106.595C309.555 108.579 310.361 110.19 311.911 111.368C312.965 112.174 314.112 112.887 315.228 113.6C317.986 115.336 320.807 117.01 323.535 118.807C326.572 120.822 329.207 123.271 331.222 126.371C332.028 127.611 332.989 128.757 333.981 129.873C339.343 136.073 346.162 140.133 353.88 142.644C362.219 145.341 370.712 147.51 379.267 149.494C384.412 150.703 389.589 151.819 394.796 152.935C399.136 153.865 401.987 151.881 402.638 147.479C402.824 146.271 402.886 145 402.886 143.791C403.041 130.71 403.537 117.63 404.312 104.549C404.374 103.557 404.405 102.565 404.343 101.573C404.188 98.7526 402.762 96.8308 400.035 95.9629C399.229 95.7149 398.423 95.4979 397.586 95.3429C393.68 94.599 389.806 93.8861 385.9 93.1422C373.749 90.8174 361.599 88.4307 349.417 86.1369C335.84 83.5642 322.264 81.0534 308.656 78.5117C306.424 78.1088 304.162 77.7368 301.93 77.3648L301.961 77.4578ZM139.724 413.493L139.507 413.679C139.631 413.896 139.724 414.113 139.848 414.33C144.281 420.53 148.713 426.76 153.177 432.959C153.518 433.424 153.983 433.827 154.447 434.199C157.733 436.834 161.019 439.469 164.335 442.072C171.248 447.559 178.191 453.045 185.878 457.385C193.937 461.941 202.151 466.25 210.335 470.558C215.325 473.193 220.409 475.673 225.461 478.152C228.127 479.454 230.854 479.733 233.613 478.276C234.078 478.029 234.636 477.874 235.132 477.719C237.302 477.13 238.914 477.657 240.153 479.547C240.742 480.446 241.207 481.469 241.61 482.461C243.594 487.699 245.547 492.938 247.531 498.176C247.686 498.61 247.903 499.044 248.089 499.509L249.886 499.137C249.576 497.463 249.235 495.883 248.988 494.271C247.314 482.864 242.416 472.945 235.194 464.08C230.885 458.78 225.926 454.161 220.44 450.1C206.925 440.058 193.348 430.046 179.834 420.003C176.61 417.616 173.262 417.089 169.481 418.453C164.459 420.251 159.345 420.344 154.292 418.763C149.829 417.337 145.427 415.632 140.995 414.051C140.53 413.896 140.096 413.71 139.662 413.524L139.724 413.493Z" stroke="url(#paint0_linear_194_212)" stroke-width="1.5" mask="url(#path-1-inside-1_194_212)"></path><defs><linearGradient id="paint0_linear_194_212" x1="229.863" y1="-91.4839" x2="229.863" y2="662.429" gradientUnits="userSpaceOnUse"><stop stop-color="#CCAA76" stop-opacity="0.53"></stop><stop offset="1" stop-color="#CCAA76" stop-opacity="0.22"></stop></linearGradient></defs></svg>