<svg xmlns="http://www.w3.org/2000/svg" width="99" height="29" viewBox="0 0 99 29" fill="none"><path d="M3.86862 28.9999C2.91984 28.9991 2.01006 28.6269 1.33857 27.965C0.667087 27.303 0.288647 26.4053 0.286133 25.4683V3.53456C0.28948 2.59704 0.668529 1.69895 1.34043 1.0366C2.01232 0.374259 2.92242 0.00152559 3.87178 -0.00012207H95.1318C96.0812 0.000704638 96.9914 0.373273 97.663 1.03588C98.3346 1.6985 98.7127 2.59707 98.7143 3.53456V25.4683C98.7135 26.4047 98.3364 27.3025 97.666 27.9646C96.9955 28.6267 96.0864 28.999 95.1382 28.9999H3.86862ZM3.86862 1.56389C3.33849 1.56472 2.83026 1.77284 2.45511 2.14273C2.07995 2.51262 1.86841 3.01417 1.86673 3.53768V25.4683C1.86924 25.9905 2.08082 26.4904 2.45529 26.8591C2.82976 27.2277 3.33671 27.435 3.86545 27.4359H95.135C95.6637 27.4359 96.1708 27.2287 96.545 26.8598C96.9191 26.4909 97.1297 25.9904 97.1306 25.4683V3.53456C97.1297 3.01162 96.9188 2.51038 96.544 2.1409C96.1693 1.77142 95.6614 1.56389 95.1318 1.56389H3.86862Z" fill="white"></path><path d="M23.0447 14.7584C23.0257 12.4968 24.923 11.3958 25.0085 11.3426C24.632 10.8119 24.1353 10.3753 23.558 10.0674C22.9806 9.75952 22.3385 9.58886 21.6826 9.56899C20.2826 9.42197 18.9269 10.3948 18.2142 10.3948C17.5015 10.3948 16.3897 9.5815 15.205 9.60653C14.441 9.63161 13.6966 9.8513 13.0439 10.2443C12.3912 10.6372 11.8525 11.1901 11.48 11.8493C9.86771 14.6051 11.0682 18.6559 12.614 20.8831C13.3868 21.9716 14.2896 23.1916 15.4647 23.1478C16.6399 23.104 17.0485 22.419 18.4454 22.419C19.8423 22.419 20.2351 23.1478 21.4387 23.1196C22.6424 23.0915 23.4596 22.0248 24.2072 20.93C24.7643 20.1546 25.1921 19.296 25.4742 18.3869C24.7545 18.0841 24.1404 17.5797 23.7081 16.9358C23.2757 16.292 23.044 15.5372 23.0415 14.7647L23.0447 14.7584ZM20.7704 8.10194C21.4472 7.30084 21.7813 6.27077 21.7016 5.23041C20.6685 5.33921 19.7145 5.82704 19.0282 6.59736C18.4549 7.25737 17.9418 8.3428 18.078 9.36254C19.0884 9.43761 20.1274 8.85893 20.7767 8.11133L20.7704 8.10194Z" fill="white"></path><path d="M39.7883 22.1779H38.1729L37.2891 19.4346H34.2134L33.3709 22.1779H31.7871L34.8438 12.8251H36.7285L39.7883 22.1779ZM37.0231 18.2804L36.2217 15.8405C36.1361 15.5902 35.9778 15.0053 35.7434 14.0794H35.7149C35.623 14.4767 35.471 15.0647 35.2651 15.8405L34.4795 18.2804H37.0231ZM47.6121 18.7277C47.6121 19.8725 47.2954 20.7797 46.6619 21.4428C46.3952 21.7306 46.0692 21.9587 45.706 22.1119C45.3427 22.2651 44.9504 22.3399 44.5555 22.3312C43.6517 22.3312 43.0023 22.0121 42.6074 21.374V24.9118H41.0902V17.6547C41.0902 16.9353 41.0712 16.1971 41.0332 15.4401H42.3667L42.4522 16.5068H42.4807C42.7107 16.1591 43.0197 15.8694 43.3832 15.6606C43.7467 15.4518 44.1545 15.3298 44.5742 15.3043C44.9939 15.2788 45.4138 15.3504 45.8005 15.5136C46.1871 15.6767 46.5298 15.9269 46.8013 16.244C47.3632 16.9494 47.6488 17.8312 47.6058 18.7277H47.6121ZM46.0664 18.7808C46.09 18.2072 45.934 17.6404 45.6198 17.1574C45.4724 16.9475 45.2746 16.777 45.0441 16.6613C44.8135 16.5455 44.5575 16.4881 44.2989 16.4942C43.9259 16.4938 43.5647 16.6234 43.2789 16.8602C42.9738 17.1065 42.7636 17.4489 42.6835 17.8299C42.6415 17.9788 42.6181 18.1321 42.6138 18.2866V19.3939C42.5987 19.8532 42.7619 20.3008 43.0699 20.6451C43.2172 20.8108 43.3998 20.9421 43.6047 21.0298C43.8095 21.1174 44.0315 21.1591 44.2546 21.1519C44.5146 21.162 44.7731 21.1078 45.0066 20.9942C45.24 20.8806 45.441 20.7111 45.5913 20.5013C45.9325 19.9883 46.099 19.3812 46.0664 18.7683V18.7808ZM55.4645 18.7277C55.4645 19.8725 55.1477 20.7797 54.5142 21.4428C54.2499 21.7285 53.9271 21.9554 53.5672 22.1086C53.2073 22.2617 52.8186 22.3376 52.4268 22.3312C51.5209 22.3312 50.8705 22.0121 50.4756 21.374V24.9118H48.9425V17.6547C48.9425 16.9353 48.9235 16.1971 48.8855 15.4401H50.219L50.3046 16.5068H50.3331C50.5629 16.1603 50.8713 15.8716 51.2339 15.6636C51.5966 15.4556 52.0033 15.334 52.4219 15.3085C52.8405 15.283 53.2593 15.3542 53.6451 15.5167C54.0308 15.6791 54.3729 15.9281 54.6441 16.244C55.2081 16.9484 55.495 17.8306 55.4518 18.7277H55.4645ZM53.9187 18.7808C53.9428 18.2067 53.7857 17.6394 53.4689 17.1574C53.3412 16.979 53.1776 16.8284 52.9883 16.7151C52.7991 16.6018 52.5883 16.5282 52.369 16.4989C52.1497 16.4695 51.9267 16.4851 51.7137 16.5446C51.5008 16.604 51.3025 16.7062 51.1313 16.8446C50.8199 17.0937 50.606 17.4421 50.5263 17.8299C50.4863 17.9792 50.463 18.1323 50.4566 18.2866V19.3939C50.4415 19.8532 50.6047 20.3008 50.9127 20.6451C51.0615 20.8123 51.2462 20.9445 51.4534 21.0322C51.6605 21.1198 51.8849 21.1607 52.1101 21.1519C52.3697 21.1624 52.6279 21.1083 52.8609 20.9946C53.0939 20.8809 53.2942 20.7113 53.4436 20.5013C53.7863 19.989 53.9529 19.3814 53.9187 18.7683V18.7808ZM64.2417 19.5566C64.2537 19.9212 64.1847 20.284 64.0397 20.6196C63.8947 20.9551 63.6772 21.2553 63.4024 21.4991C62.7847 22.0434 61.9263 22.3186 60.824 22.3186C59.9668 22.36 59.1158 22.1569 58.3723 21.7337L58.7207 20.4825C59.3833 20.8722 60.1415 21.0746 60.9126 21.0674C61.3881 21.0969 61.8592 20.9632 62.2462 20.6889C62.4009 20.5676 62.5247 20.4121 62.6078 20.2351C62.6908 20.058 62.7308 19.8642 62.7245 19.6692C62.7281 19.4917 62.6951 19.3153 62.6276 19.1508C62.5601 18.9863 62.4594 18.837 62.3317 18.712C61.9507 18.3872 61.5066 18.1425 61.0267 17.9926C59.3669 17.3816 58.537 16.489 58.537 15.315C58.5302 14.9567 58.6059 14.6016 58.7585 14.2764C58.911 13.9513 59.1364 13.6647 59.4176 13.4382C60.0765 12.9225 60.9029 12.6612 61.7425 12.7031C62.4835 12.6742 63.2205 12.8234 63.8901 13.1379L63.5132 14.3578C62.9527 14.0677 62.3278 13.9204 61.695 13.9293C61.2387 13.8997 60.7874 14.0379 60.428 14.3171C60.3071 14.4234 60.2105 14.5541 60.145 14.7003C60.0794 14.8465 60.0463 15.0049 60.0479 15.1648C60.0445 15.3401 60.0821 15.5137 60.1579 15.6722C60.2338 15.8306 60.3457 15.9696 60.485 16.0782C60.901 16.3904 61.3652 16.6343 61.8598 16.8008C62.5411 17.0353 63.1573 17.4242 63.6589 17.9363C64.0496 18.3861 64.2554 18.9643 64.2354 19.5566H64.2417ZM69.2686 16.5787H67.5993V19.835C67.5993 20.6691 67.8939 21.0862 68.4831 21.0862C68.71 21.0916 68.9367 21.0685 69.1578 21.0174L69.1989 22.1529C68.8189 22.2753 68.4202 22.3314 68.0206 22.3186C67.7607 22.3326 67.5008 22.2915 67.2582 22.1981C67.0157 22.1048 66.7961 21.9614 66.6142 21.7775C66.2785 21.4178 66.1074 20.8109 66.1074 19.9601V16.5599H65.1128V15.437H66.1074V14.1858L67.5993 13.7635V15.4432H69.2686V16.5787ZM76.7979 18.7683C76.8343 19.7007 76.513 20.6123 75.8983 21.3208C75.5827 21.6615 75.1954 21.9298 74.7637 22.1071C74.332 22.2843 73.8662 22.3661 73.3991 22.3468C72.9515 22.3662 72.505 22.2883 72.0912 22.1186C71.6774 21.9489 71.3064 21.6915 71.0045 21.3646C70.3981 20.6788 70.0788 19.7908 70.1112 18.8809C70.0731 17.9407 70.4032 17.0221 71.0329 16.3159C71.3471 15.9813 71.7316 15.7185 72.1595 15.5461C72.5875 15.3737 73.0484 15.2959 73.51 15.3181C73.961 15.2997 74.4108 15.3783 74.8281 15.5484C75.2454 15.7185 75.6203 15.9761 75.9268 16.3034C76.5256 16.9849 76.8373 17.8669 76.7979 18.7683ZM75.2141 18.8027C75.2352 18.2439 75.0981 17.6904 74.8182 17.2043C74.6898 16.9581 74.4942 16.7522 74.2535 16.6102C74.0127 16.4681 73.7365 16.3954 73.4561 16.4004C73.1714 16.3927 72.8902 16.4639 72.6444 16.606C72.3986 16.7481 72.1981 16.9554 72.0656 17.2043C71.7817 17.696 71.6413 18.2558 71.6601 18.8215C71.6441 19.377 71.7844 19.926 72.0656 20.4074C72.1993 20.651 72.3972 20.8544 72.6384 20.9962C72.8795 21.1379 73.1549 21.2128 73.4355 21.2128C73.7162 21.2128 73.9916 21.1379 74.2327 20.9962C74.4738 20.8544 74.6717 20.651 74.8055 20.4074C75.099 19.9175 75.2471 19.3561 75.2331 18.7871L75.2141 18.8027ZM81.7171 16.7726C81.5594 16.7435 81.3992 16.7298 81.2388 16.732C80.9989 16.7208 80.76 16.7694 80.5442 16.8732C80.3283 16.9771 80.1423 17.1329 80.0034 17.3263C79.738 17.72 79.605 18.1862 79.6233 18.6588V22.1779H78.1092V17.5609C78.1092 16.854 78.0945 16.147 78.0649 15.4401H79.3858L79.4396 16.7288H79.4808C79.6257 16.3088 79.8896 15.9387 80.241 15.6622C80.5568 15.4271 80.9415 15.2998 81.337 15.2993C81.4642 15.2984 81.5914 15.3078 81.7171 15.3275V16.757V16.7726ZM88.4988 18.5056C88.5047 18.7331 88.4867 18.9606 88.4449 19.1844H83.909C83.8985 19.471 83.9521 19.7563 84.066 20.0202C84.1799 20.284 84.3512 20.5198 84.5678 20.7108C84.9916 21.0378 85.5193 21.2053 86.0566 21.1832C86.6844 21.1929 87.3085 21.0868 87.8969 20.8704L88.1345 21.9089C87.4092 22.2012 86.6307 22.3429 85.8475 22.3249C85.3897 22.3502 84.9316 22.2815 84.502 22.1232C84.0724 21.9649 83.6807 21.7205 83.3515 21.4053C83.0421 21.072 82.8028 20.6814 82.6473 20.2562C82.4918 19.8309 82.4232 19.3794 82.4456 18.9279C82.4129 18.0098 82.7127 17.1103 83.2913 16.391C83.5741 16.0338 83.9385 15.7478 84.3548 15.5565C84.771 15.3651 85.2272 15.2738 85.686 15.29C86.1181 15.2679 86.5488 15.3555 86.9369 15.5444C87.3251 15.7333 87.6577 16.0173 87.9033 16.3691C88.3216 16.9974 88.5319 17.7385 88.5051 18.4899L88.4988 18.5056ZM87.0544 18.1177C87.0745 17.7136 86.972 17.3127 86.7598 16.9666C86.6345 16.7645 86.4561 16.5997 86.2437 16.4896C86.0312 16.3794 85.7926 16.3281 85.553 16.341C85.3146 16.3383 85.0793 16.3941 84.8681 16.5032C84.657 16.6124 84.4765 16.7716 84.343 16.9666C84.0859 17.3051 83.9311 17.7085 83.8963 18.1302L87.0544 18.1177Z" fill="white"></path><path d="M33.7764 10.3376C33.4114 10.3401 33.0466 10.3223 32.6836 10.2844V5.76437C33.1092 5.70036 33.5391 5.66899 33.9696 5.67053C35.7086 5.67053 36.5037 6.5151 36.5037 7.89143C36.51 9.48048 35.5629 10.3376 33.7764 10.3376ZM34.0298 6.24922C33.8292 6.24487 33.6286 6.26059 33.4311 6.29614V9.73697C33.5983 9.75606 33.7666 9.76338 33.9348 9.75887C35.0719 9.75887 35.7213 9.11762 35.7213 7.91959C35.7213 6.84354 35.1353 6.25547 34.0298 6.25547V6.24922ZM39.006 10.372C38.0241 10.372 37.3906 9.64939 37.3906 8.67032C37.3906 7.69124 38.0399 6.91862 39.0599 6.91862C40.026 6.91862 40.6753 7.60678 40.6753 8.61401C40.6753 9.62124 40.007 10.372 39.006 10.372ZM39.0345 7.45664C38.496 7.45664 38.1508 7.954 38.1508 8.64842C38.1508 9.34284 38.5024 9.82769 39.0282 9.82769C39.554 9.82769 39.9024 9.29592 39.9024 8.63278C39.9024 7.96964 39.5572 7.45664 39.0345 7.45664ZM46.266 6.98743L45.2176 10.2969H44.5334L44.0994 8.86113C43.9911 8.50934 43.9012 8.15227 43.8302 7.79134H43.8143C43.7531 8.15434 43.663 8.51203 43.5451 8.86113L43.0826 10.2969H42.3921L41.407 6.98743H42.1704L42.5505 8.55145C42.6423 8.92681 42.7152 9.28028 42.7786 9.61498C42.8513 9.25797 42.9433 8.90505 43.0541 8.55771L43.5293 6.97805H44.1374L44.5935 8.5233C44.7044 8.89866 44.7931 9.26777 44.8628 9.61498H44.8818C44.9384 9.2474 45.0146 8.88301 45.1099 8.5233L45.5185 6.97805L46.266 6.98743ZM50.1304 10.2969H49.3829V8.39505C49.3829 7.81011 49.1548 7.51607 48.7082 7.51607C48.6046 7.51964 48.5027 7.54367 48.4087 7.58675C48.3146 7.62983 48.2303 7.69108 48.1606 7.76689C48.0909 7.84271 48.0373 7.93154 48.003 8.02814C47.9686 8.12475 47.9542 8.22717 47.9606 8.32936V10.2969H47.2163V7.9321C47.2163 7.64119 47.2163 7.32526 47.1878 6.99369H47.8435L47.8783 7.50669H47.9005C48.0102 7.32591 48.1665 7.1771 48.3535 7.07544C48.5405 6.97378 48.7514 6.9229 48.9648 6.928C49.668 6.928 50.1304 7.45977 50.1304 8.3231V10.3063V10.2969ZM52.1862 10.2969H51.4386V5.46721H52.1862V10.2969ZM54.9039 10.372C53.9251 10.372 53.2885 9.64939 53.2885 8.67032C53.2885 7.69124 53.922 6.91862 54.9578 6.91862C55.9239 6.91862 56.5732 7.60678 56.5732 8.61401C56.5732 9.62124 55.9049 10.372 54.9039 10.372ZM54.9324 7.45664C54.3939 7.45664 54.0487 7.954 54.0487 8.64842C54.0487 9.34284 54.4003 9.82769 54.9229 9.82769C55.4456 9.82769 55.8003 9.29592 55.8003 8.63278C55.8003 7.96964 55.4551 7.45664 54.9324 7.45664ZM59.5127 10.2969L59.4588 9.91527H59.4398C59.3275 10.066 59.1789 10.1867 59.0074 10.2664C58.836 10.3461 58.6471 10.3824 58.4579 10.372C58.3246 10.3793 58.1913 10.3594 58.0662 10.3137C57.9411 10.2679 57.8268 10.1972 57.7305 10.1059C57.6343 10.0147 57.5581 9.90484 57.5066 9.78325C57.4552 9.66165 57.4297 9.53091 57.4316 9.39915C57.4316 8.5796 58.1475 8.14793 59.3891 8.14793V8.0885C59.3891 7.65058 59.1579 7.43161 58.6954 7.43161C58.3848 7.42721 58.0796 7.51315 57.8181 7.67873L57.666 7.19388C58.0156 6.99378 58.4152 6.89512 58.819 6.90923C59.6932 6.90923 60.1367 7.36593 60.1367 8.27931V9.49924C60.1323 9.76385 60.1482 10.0284 60.1842 10.2906L59.5127 10.2969ZM59.4113 8.64842C58.5814 8.64842 58.1665 8.84549 58.1665 9.31469C58.1587 9.38366 58.1665 9.45348 58.1894 9.5191C58.2123 9.58472 58.2496 9.64452 58.2987 9.69419C58.3477 9.74386 58.4074 9.78215 58.4733 9.80632C58.5391 9.83048 58.6096 9.83992 58.6796 9.83394C58.8668 9.83821 59.0483 9.76987 59.1851 9.64356C59.3219 9.51725 59.4031 9.34304 59.4113 9.15829V8.64842ZM63.7572 10.2969L63.7223 9.76513H63.7002C63.6013 9.95992 63.4463 10.1215 63.2547 10.2295C63.063 10.3375 62.8433 10.387 62.6232 10.372C61.8155 10.372 61.2168 9.67129 61.2168 8.68283C61.2168 7.64745 61.8503 6.91862 62.6866 6.91862C62.8714 6.89902 63.058 6.93046 63.2258 7.00944C63.3936 7.08841 63.5359 7.21182 63.6368 7.36593V5.46721H64.3844V9.4054C64.3844 9.71821 64.3844 10.031 64.4129 10.2969H63.7572ZM63.6463 8.34813C63.6519 8.24167 63.6358 8.1352 63.5991 8.03495C63.5624 7.9347 63.5059 7.84269 63.4327 7.76432C63.3595 7.68595 63.2713 7.62279 63.173 7.57855C63.0748 7.53431 62.9687 7.50988 62.8608 7.50669C62.3096 7.50669 61.9707 7.9884 61.9707 8.67032C61.9707 9.35223 62.3223 9.79641 62.8481 9.79641C62.9594 9.79164 63.0686 9.76498 63.1692 9.71798C63.2699 9.67099 63.3601 9.6046 63.4344 9.52272C63.5088 9.44085 63.5658 9.34513 63.6022 9.24119C63.6386 9.13725 63.6536 9.02717 63.6463 8.91743V8.34813ZM69.123 10.372C68.1442 10.372 67.5107 9.64939 67.5107 8.67032C67.5107 7.69124 68.1442 6.91862 69.18 6.91862C70.1461 6.91862 70.7955 7.60678 70.7955 8.61401C70.7955 9.62124 70.1271 10.372 69.123 10.372ZM69.1515 7.45664C68.613 7.45664 68.2709 7.954 68.2709 8.64842C68.2709 9.34284 68.6225 9.82769 69.1452 9.82769C69.6678 9.82769 70.0226 9.29592 70.0226 8.63278C70.0226 7.96964 69.6773 7.45664 69.1515 7.45664ZM74.8056 10.2969H74.058V8.39505C74.058 7.81011 73.83 7.51607 73.3833 7.51607C73.2797 7.51964 73.1779 7.54367 73.0838 7.58675C72.9898 7.62983 72.9054 7.69108 72.8358 7.76689C72.7661 7.84271 72.7125 7.93154 72.6781 8.02814C72.6438 8.12475 72.6294 8.22717 72.6358 8.32936V10.2969H71.8914V7.9321C71.8914 7.64119 71.8914 7.32526 71.8629 6.99369H72.5186L72.5535 7.50669H72.5756C72.6844 7.32229 72.8416 7.17033 73.0306 7.06682C73.2196 6.96332 73.4334 6.91212 73.6494 6.91862C74.3558 6.91862 74.8183 7.44725 74.8183 8.31372L74.8056 10.2969ZM79.8198 7.53797H78.9994V9.14578C78.9994 9.55555 79.1451 9.77138 79.4334 9.77138C79.5399 9.77194 79.6462 9.76039 79.7501 9.73697L79.7691 10.2969C79.5836 10.3586 79.3882 10.3862 79.1926 10.3782C78.6035 10.3782 78.2424 10.0654 78.2424 9.22085V7.53797H77.7672V6.98743H78.255V6.38059L78.9867 6.16163V6.98431H79.8071V7.53797H79.8198ZM83.7666 10.2969H83.0222V8.42007C83.0222 7.82575 82.7973 7.52545 82.3475 7.52545C82.2445 7.52287 82.1421 7.54179 82.0471 7.58097C81.952 7.62015 81.8664 7.67872 81.7958 7.75283C81.7253 7.82695 81.6713 7.91494 81.6376 8.01106C81.6038 8.10717 81.591 8.20924 81.6 8.31059V10.3063H80.8556V5.46721H81.6V7.45664C81.7037 7.28608 81.8519 7.14616 82.0291 7.05152C82.2062 6.95687 82.4059 6.91097 82.6073 6.91862C83.3168 6.91862 83.7507 7.46289 83.7507 8.32936V10.2969H83.7666ZM87.8115 8.82046H85.5752C85.5683 8.95684 85.5915 9.09308 85.6434 9.21967C85.6953 9.34625 85.7745 9.46014 85.8755 9.55336C85.9766 9.64659 86.097 9.71692 86.2284 9.75944C86.3598 9.80196 86.499 9.81564 86.6364 9.79954C86.9455 9.80334 87.2527 9.7503 87.5423 9.64313L87.6563 10.1561C87.2994 10.2988 86.9168 10.368 86.5318 10.3595C85.4834 10.3595 84.8625 9.70569 84.8625 8.68908C84.8625 7.67247 85.496 6.90923 86.4463 6.90923C87.3015 6.90923 87.84 7.53484 87.84 8.47325C87.8442 8.5854 87.8357 8.69766 87.8147 8.80795L87.8115 8.82046ZM87.1273 8.29495C87.1273 7.78195 86.8676 7.42223 86.3893 7.42223C86.1672 7.43958 85.9599 7.53913 85.809 7.70095C85.658 7.86278 85.5745 8.07494 85.5752 8.29495H87.1273Z" fill="white"></path></svg>